# This file uses centimeters as units for non-parametric coordinates.

mtllib MC_Steve.mtl
v -0.249922 0.749934 0.125000
v 0.249922 0.749934 0.125000
v -0.249922 1.499934 0.125000
v 0.249922 1.499934 0.125000
v -0.249922 1.499934 -0.125000
v 0.249922 1.499934 -0.125000
v -0.249922 0.749934 -0.125000
v 0.249922 0.749934 -0.125000
vt 0.312496 0.001331
vt 0.437947 0.001331
vt 0.437947 0.373165
vt 0.312496 0.373165
vt 0.250035 0.373165
vt 0.250035 0.001331
vt 0.437947 0.501652
vt 0.312496 0.501652
vt 0.624154 0.373165
vt 0.499839 0.373165
vt 0.499840 0.001331
vt 0.624154 0.001331
vt 0.437468 0.501494
vt 0.437499 0.373007
vt 0.561657 0.373007
vt 0.561657 0.501494
vn 0.000000 0.000000 1.000000
vn 0.000000 0.000000 1.000000
vn 0.000000 0.000000 1.000000
vn 0.000000 0.000000 1.000000
vn 0.000000 1.000000 0.000000
vn 0.000000 1.000000 0.000000
vn 0.000000 1.000000 0.000000
vn 0.000000 1.000000 0.000000
vn 0.000000 0.000000 -1.000000
vn 0.000000 0.000000 -1.000000
vn 0.000000 0.000000 -1.000000
vn 0.000000 0.000000 -1.000000
vn 0.000000 -1.000000 0.000000
vn 0.000000 -1.000000 0.000000
vn 0.000000 -1.000000 0.000000
vn 0.000000 -1.000000 0.000000
vn 1.000000 0.000000 0.000000
vn 1.000000 0.000000 0.000000
vn 1.000000 0.000000 0.000000
vn 1.000000 0.000000 0.000000
vn -1.000000 0.000000 0.000000
vn -1.000000 0.000000 0.000000
vn -1.000000 0.000000 0.000000
vn -1.000000 0.000000 0.000000
g Body
usemtl MC_Steve_SG
f 1/1/1 2/2/2 4/3/3 3/4/4
f 3/4/5 4/3/6 6/7/7 5/8/8
f 5/9/9 6/10/10 8/11/11 7/12/12
f 7/13/13 8/14/14 2/15/15 1/16/16
f 2/2/17 8/11/18 6/10/19 4/3/20
f 7/6/21 1/1/22 3/4/23 5/5/24
v -0.249922 1.500078 0.249922
v 0.249922 1.500078 0.249922
v -0.249922 1.999922 0.249922
v 0.249922 1.999922 0.249922
v -0.249922 1.999922 -0.249922
v 0.249922 1.999922 -0.249922
v -0.249922 1.500078 -0.249922
v 0.249922 1.500078 -0.249922
vt 0.125156 0.502133
vt 0.249929 0.502133
vt 0.125156 0.749488
vt 0.249929 0.749488
vt 0.499476 0.749488
vt 0.249929 0.999062
vt 0.249904 0.750360
vt 0.374703 0.502133
vt 0.249904 1.000360
vt 0.374782 1.000360
vt 0.125156 0.999062
vt 0.374703 0.749488
vt 0.000383 0.502133
vt 0.000383 0.749488
vt 0.374782 0.750360
vt 0.499476 0.502133
vn 0.000000 0.000000 1.000000
vn 0.000000 0.000000 1.000000
vn 0.000000 0.000000 1.000000
vn 0.000000 0.000000 1.000000
vn 0.000000 1.000000 0.000000
vn 0.000000 1.000000 0.000000
vn 0.000000 1.000000 0.000000
vn 0.000000 1.000000 0.000000
vn 0.000000 0.000000 -1.000000
vn 0.000000 0.000000 -1.000000
vn 0.000000 0.000000 -1.000000
vn 0.000000 0.000000 -1.000000
vn 0.000000 -1.000000 0.000000
vn 0.000000 -1.000000 0.000000
vn 0.000000 -1.000000 0.000000
vn 0.000000 -1.000000 0.000000
vn 1.000000 0.000000 0.000000
vn 1.000000 0.000000 0.000000
vn 1.000000 0.000000 0.000000
vn 1.000000 0.000000 0.000000
vn -1.000000 0.000000 0.000000
vn -1.000000 0.000000 0.000000
vn -1.000000 0.000000 0.000000
vn -1.000000 0.000000 0.000000
g Head
f 9/17/25 10/18/26 12/20/27 11/19/28
f 11/19/29 12/20/30 14/22/31 13/27/32
f 13/21/33 14/28/34 16/24/35 15/32/36
f 15/23/37 16/31/38 10/26/39 9/25/40
f 10/18/41 16/24/42 14/28/43 12/20/44
f 15/29/45 9/17/46 11/19/47 13/30/48
v -0.500000 0.896267 0.420877
v -0.250000 0.896267 0.420877
v -0.500000 1.545786 0.045877
v -0.250000 1.545786 0.045877
v -0.500000 1.420786 -0.170629
v -0.250000 1.420786 -0.170629
v -0.500000 0.771267 0.204371
v -0.250000 0.771267 0.204371
vt 0.687637 0.001749
vt 0.750849 0.001749
vt 0.750849 0.374021
vt 0.687637 0.374021
vt 0.624425 0.001749
vt 0.811895 0.374021
vt 0.750849 0.501359
vt 0.687637 0.501359
vt 0.874025 0.374021
vt 0.624425 0.374021
vt 0.811895 0.001749
vt 0.874025 0.001749
vt 0.750883 0.374120
vt 0.811800 0.374120
vt 0.811800 0.501254
vt 0.750883 0.501254
vn 0.000000 0.500000 0.866025
vn 0.000000 0.500000 0.866025
vn 0.000000 0.500000 0.866025
vn 0.000000 0.500000 0.866025
vn 0.000000 0.866025 -0.500000
vn 0.000000 0.866025 -0.500000
vn 0.000000 0.866025 -0.500000
vn 0.000000 0.866025 -0.500000
vn 0.000000 -0.500000 -0.866025
vn 0.000000 -0.500000 -0.866025
vn 0.000000 -0.500000 -0.866025
vn 0.000000 -0.500000 -0.866025
vn 0.000000 -0.866025 0.500000
vn 0.000000 -0.866025 0.500000
vn 0.000000 -0.866025 0.500000
vn 0.000000 -0.866025 0.500000
vn 1.000000 0.000000 0.000000
vn 1.000000 0.000000 0.000000
vn 1.000000 0.000000 0.000000
vn 1.000000 0.000000 0.000000
vn -1.000000 0.000000 0.000000
vn -1.000000 0.000000 0.000000
vn -1.000000 0.000000 0.000000
vn -1.000000 0.000000 0.000000
g ArmR
f 17/33/49 18/34/50 20/35/51 19/36/52
f 19/36/53 20/35/54 22/39/55 21/40/56
f 21/41/57 22/38/58 24/43/59 23/44/60
f 23/45/61 24/46/62 18/47/63 17/48/64
f 18/34/65 24/43/66 22/38/67 20/35/68
f 23/37/69 17/33/70 19/36/71 21/42/72
v 0.499264 0.771267 -0.204371
v 0.249264 0.771267 -0.204371
v 0.499264 1.420786 0.170629
v 0.249264 1.420786 0.170629
v 0.499264 1.545786 -0.045877
v 0.249264 1.545786 -0.045877
v 0.499264 0.896267 -0.420877
v 0.249264 0.896267 -0.420877
vt 0.687637 0.001749
vt 0.750849 0.001749
vt 0.750849 0.374021
vt 0.687637 0.374021
vt 0.624425 0.001749
vt 0.811895 0.374021
vt 0.750849 0.501359
vt 0.687637 0.501359
vt 0.874025 0.374021
vt 0.624425 0.374021
vt 0.811895 0.001749
vt 0.874025 0.001749
vt 0.750883 0.374120
vt 0.811800 0.374120
vt 0.811800 0.501254
vt 0.750883 0.501254
vn 0.000000 -0.500000 0.866025
vn 0.000000 -0.500000 0.866025
vn 0.000000 -0.500000 0.866025
vn 0.000000 -0.500000 0.866025
vn 0.000000 0.866025 0.500000
vn 0.000000 0.866025 0.500000
vn 0.000000 0.866025 0.500000
vn 0.000000 0.866025 0.500000
vn 0.000000 0.500000 -0.866025
vn 0.000000 0.500000 -0.866025
vn 0.000000 0.500000 -0.866025
vn 0.000000 0.500000 -0.866025
vn 0.000000 -0.866025 -0.500000
vn 0.000000 -0.866025 -0.500000
vn 0.000000 -0.866025 -0.500000
vn 0.000000 -0.866025 -0.500000
vn -1.000000 0.000000 0.000000
vn -1.000000 0.000000 0.000000
vn -1.000000 0.000000 0.000000
vn -1.000000 0.000000 0.000000
vn 1.000000 0.000000 0.000000
vn 1.000000 0.000000 0.000000
vn 1.000000 0.000000 0.000000
vn 1.000000 0.000000 0.000000
g ArmL
f 25/49/73 27/52/74 28/51/75 26/50/76
f 27/52/77 29/56/78 30/55/79 28/51/80
f 29/57/81 31/60/82 32/59/83 30/54/84
f 31/61/85 25/64/86 26/63/87 32/62/88
f 26/50/89 28/51/90 30/54/91 32/59/92
f 31/53/93 29/58/94 27/52/95 25/49/96
v -0.250000 0.037782 -0.266004
v 0.000000 0.037782 -0.266004
v -0.250000 0.687301 0.108996
v 0.000000 0.687301 0.108996
v -0.250000 0.812301 -0.107510
v 0.000000 0.812301 -0.107510
v -0.250000 0.162782 -0.482510
v 0.000000 0.162782 -0.482510
vt 0.062598 0.000716
vt 0.125799 0.000716
vt 0.125799 0.373584
vt 0.062598 0.373584
vt 0.000465 0.373584
vt 0.000465 0.000716
vt 0.125799 0.501079
vt 0.062598 0.501080
vt 0.248995 0.373584
vt 0.187397 0.373584
vt 0.187397 0.000716
vt 0.248995 0.000716
vt 0.125641 0.373247
vt 0.187027 0.373247
vt 0.187027 0.500877
vt 0.125641 0.500877
vn 0.000000 -0.500000 0.866025
vn 0.000000 -0.500000 0.866025
vn 0.000000 -0.500000 0.866025
vn 0.000000 -0.500000 0.866025
vn 0.000000 0.866025 0.500000
vn 0.000000 0.866025 0.500000
vn 0.000000 0.866025 0.500000
vn 0.000000 0.866025 0.500000
vn 0.000000 0.500000 -0.866025
vn 0.000000 0.500000 -0.866025
vn 0.000000 0.500000 -0.866025
vn 0.000000 0.500000 -0.866025
vn 0.000000 -0.866025 -0.500000
vn 0.000000 -0.866025 -0.500000
vn 0.000000 -0.866025 -0.500000
vn 0.000000 -0.866025 -0.500000
vn 1.000000 0.000000 0.000000
vn 1.000000 0.000000 0.000000
vn 1.000000 0.000000 0.000000
vn 1.000000 0.000000 0.000000
vn -1.000000 0.000000 0.000000
vn -1.000000 0.000000 0.000000
vn -1.000000 0.000000 0.000000
vn -1.000000 0.000000 0.000000
g LegR
f 33/65/97 34/66/98 36/67/99 35/68/100
f 35/68/101 36/67/102 38/71/103 37/72/104
f 37/73/105 38/74/106 40/75/107 39/76/108
f 39/77/109 40/78/110 34/79/111 33/80/112
f 34/66/113 40/75/114 38/74/115 36/67/116
f 39/70/117 33/65/118 35/68/119 37/69/120
v 0.250000 0.162782 0.482510
v 0.000000 0.162782 0.482510
v 0.250000 0.812301 0.107510
v 0.000000 0.812301 0.107510
v 0.250000 0.687301 -0.108996
v 0.000000 0.687301 -0.108996
v 0.250000 0.037782 0.266004
v 0.000000 0.037782 0.266004
vt 0.062598 0.000716
vt 0.125799 0.000716
vt 0.125799 0.373584
vt 0.062598 0.373584
vt 0.000465 0.373584
vt 0.000465 0.000716
vt 0.125799 0.501079
vt 0.062598 0.501080
vt 0.248995 0.373584
vt 0.187397 0.373584
vt 0.187397 0.000716
vt 0.248995 0.000716
vt 0.125641 0.373247
vt 0.187027 0.373247
vt 0.187027 0.500877
vt 0.125641 0.500877
vn 0.000000 0.500000 0.866025
vn 0.000000 0.500000 0.866025
vn 0.000000 0.500000 0.866025
vn 0.000000 0.500000 0.866025
vn 0.000000 0.866025 -0.500000
vn 0.000000 0.866025 -0.500000
vn 0.000000 0.866025 -0.500000
vn 0.000000 0.866025 -0.500000
vn 0.000000 -0.500000 -0.866025
vn 0.000000 -0.500000 -0.866025
vn 0.000000 -0.500000 -0.866025
vn 0.000000 -0.500000 -0.866025
vn 0.000000 -0.866025 0.500000
vn 0.000000 -0.866025 0.500000
vn 0.000000 -0.866025 0.500000
vn 0.000000 -0.866025 0.500000
vn -1.000000 0.000000 0.000000
vn -1.000000 0.000000 0.000000
vn -1.000000 0.000000 0.000000
vn -1.000000 0.000000 0.000000
vn 1.000000 0.000000 0.000000
vn 1.000000 0.000000 0.000000
vn 1.000000 0.000000 0.000000
vn 1.000000 0.000000 0.000000
g LegL
f 41/81/121 43/84/122 44/83/123 42/82/124
f 43/84/125 45/88/126 46/87/127 44/83/128
f 45/89/129 47/92/130 48/91/131 46/90/132
f 47/93/133 41/96/134 42/95/135 48/94/136
f 42/82/137 44/83/138 46/90/139 48/91/140
f 47/86/141 45/85/142 43/84/143 41/81/144
